<svg xmlns:xlink="http://www.w3.org/1999/xlink" xmlns="http://www.w3.org/2000/svg" class="icon-logo" width="446.33"  height="76.87" ><defs><symbol xmlns="http://www.w3.org/2000/svg" xmlns:xlink="http://www.w3.org/1999/xlink" viewBox="0 0 446.33 76.87" id="icon-logo">
<path style="" d="M46.38,45.95c-4.87,0-9.75,0-14.62,0c-0.37,0-0.98,0.21-0.98-0.23c0-1.17,0-2.35,0-3.52  c0-0.48-0.01-6.91,0.01-6.91c9.37,0,18.74,0,28.11,0c0.49,0,0.22,1.68,0.22,2.07c0,2.4,0,4.8,0,7.21c0,6.31,0,12.62,0,18.93  c0,2,0,4,0,6c0,0.17,0.1,0.74,0,0.88c-2.56,0.94-5.25,1.56-7.93,2.06c-11.41,2.11-24.1,2.4-34.67-3.06  c-4.78-2.47-8.85-6.14-11.66-10.75c-2.98-4.9-4.42-10.61-4.78-16.29C-0.67,30.3,3.36,18.12,12.82,10.28  C22.26,2.45,34.9,0.66,46.75,2.1c2.8,0.34,5.62,0.84,8.33,1.64c0.35,0.1,1.55,0.25,1.55,0.67c0,0.44,0,0.87,0,1.31  c0,2.87,0,5.74,0,8.61c0,0.24,0,0.49,0,0.73c-11.07-3.55-25.13-4.63-34.71,3.18c-8.63,7.03-10.53,19.61-7.47,29.88  c1.27,4.27,3.74,8.04,7.4,10.64c4.03,2.85,8.97,4.02,13.84,4.25c3.04,0.15,6.11-0.04,9.12-0.5c0.33-0.05,1.57-0.03,1.57-0.43  c0-0.33,0-0.67,0-1c0-2.89,0-5.78,0-8.66C46.38,50.25,46.38,48.1,46.38,45.95z" fill="#074C80"></path>
<path style="" d="M179.63,52.55c0-6.39-6.93-8.02-11.98-9.14c-5.72-1.27-11.96-2.2-16.92-5.52  c-4.63-3.1-6.96-7.99-7.17-13.47c-0.21-5.53,1.18-11.03,4.87-15.27c8.03-9.2,22.58-8.43,33.38-5.95c1.34,0.31,2.68,0.66,3.99,1.07  c0.36,0.11,3.49,0.98,3.49,1.28c0,0.86,0,1.73,0,2.59c0,2.72,0,5.44,0,8.16c0,0.06,0,0.11,0,0.17c-5.64-2.22-11.59-3.71-17.66-4  c-4.54-0.22-10.73,0-13.69,4.09c-1.42,1.96-1.74,4.65-1.28,6.99c0.52,2.65,2.49,4.52,4.83,5.69c2.64,1.32,5.63,1.91,8.5,2.51  c3.09,0.64,6.17,1.39,9.17,2.34c5.19,1.65,10.05,4.8,12.21,10c2.04,4.92,1.86,11.36-0.09,16.28c-4.39,11.05-17.59,13.55-28.17,13.47  c-4.33-0.03-8.69-0.53-12.88-1.6c-1.78-0.45-3.53-1.02-5.21-1.77c-0.22-0.1-1.8-0.7-1.8-0.92c0-0.17,0-0.35,0-0.52  c0-3.41,0-6.82,0-10.22c6.81,2.96,14.19,4.54,21.63,4.23C171.38,62.75,179.63,60.48,179.63,52.55" fill="#074C80"></path>
<path style="" d="M230.39,72.52c-1.21,0-12.74,0.01-12.74-0.01c0-2.75,0-5.49,0-8.24c0-12.34,0-24.68,0-37.02  c0-4.14,0-8.27,0-12.41c0-0.51,0.26-1.23-0.32-1.23c-2.18,0-4.35,0-6.53,0c-5.17,0-10.33,0-15.5,0c-0.24,0-0.11-5.41-0.11-5.93  c0-1.36,0-2.72,0-4.08c0-0.26-0.15-0.65,0.15-0.65c9.32,0,18.64,0,27.96,0c9.72,0,19.43,0,29.15,0c0.18,0,0.36-0.08,0.36,0.12  c0,1.08,0,2.17,0,3.25c0,1.6,0,3.21,0,4.81c0,0.33,0.25,2.24,0,2.47c-0.15,0.14-1.13,0-1.33,0c-1.13,0-2.27,0-3.4,0  c-3.18,0-6.35,0-9.53,0c-2.46,0-4.91,0-7.37,0c-0.91,0-0.79-0.05-0.79,0.83c0,3.88,0,7.75,0,11.63c0,12.39,0,24.78,0,37.18  C230.39,66.33,230.39,69.42,230.39,72.52z" fill="#074C80"></path>
<path style="" d="M288.19,73.82c-5.73,0-11.63-0.88-16.71-3.67c-4.97-2.72-8.55-7.2-10.46-12.5  c-2.07-5.74-1.9-11.9-1.9-17.92c0-11.41,0-22.81,0-34.22c0-0.18-0.04-2.57,0.04-2.57c2.44,0,4.88,0,7.33,0  c0.4,0,5.38-0.07,5.38,0.06c0,1.24,0,2.48,0,3.73c0,11.3,0,22.6,0,33.91c0,6.49,0.04,13.99,5.21,18.71c4,3.66,10.31,4.32,15.44,3.33  c5.19-1,9.14-4.25,10.9-9.27c1.74-4.96,1.42-10.41,1.42-15.6c0-6.08,0-12.16,0-18.23c0-5.09,0-10.19,0-15.28c0-0.42,0-0.84,0-1.26  c0-0.2,0.89-0.08,1.06-0.08c2.97,0,5.93,0,8.9,0c0.91,0,1.81,0,2.72,0c0.14,0,0.06,0.43,0.06,0.55c0,1.66,0,3.32,0,4.98  c0,6.11,0,12.23,0,18.34c0,5.16,0,10.32,0,15.48c0,7.95-0.65,16.1-5.9,22.51C306.01,71.69,296.72,73.82,288.19,73.82" fill="#074C80"></path>
<path style="" d="M326.66,72.52c0-7.6,0-15.21,0-22.81c0-12.38,0-24.76,0-37.14c0-3.09,0-6.18,0-9.26  c0-0.05-0.03-0.36,0.03-0.36c0.64,0,1.28,0,1.91,0c2.98,0,5.96,0,8.94,0c7.39,0,14.73-0.06,22.03,1.38  c11.4,2.26,21.25,9.62,25.03,20.82c1.94,5.73,2.3,11.98,1.57,17.96c-0.71,5.77-2.65,11.41-6.22,16.04  c-7.14,9.29-18.91,12.44-30.1,13.17C342.17,72.82,334.37,72.52,326.66,72.52z M344.65,61.86c10.01,0,21.4-1.85,26.27-11.81  c2.38-4.86,2.85-10.72,2.33-16.04c-0.55-5.6-2.83-11.02-7.25-14.65c-7.39-6.06-17.17-5.77-26.2-5.77c-0.44,0-0.4-0.05-0.4,0.35  c0,0.51,0,1.02,0,1.53c0,2.01,0,4.02,0,6.04c0,11.92,0,23.83,0,35.75c0,1.45,0,2.9,0,4.35c0,0.51,0.72,0.24,1.13,0.24  C341.91,61.86,343.28,61.86,344.65,61.86z" fill="#074C80"></path>
<path style="" d="M413.67,32.89c5.24-8.48,10.48-16.95,15.72-25.43c0.81-1.31,1.62-2.62,2.43-3.94  c0.12-0.19,0.24-0.39,0.36-0.58c0.07-0.12,1.29,0,1.42,0c4.24,0,8.48,0,12.72,0c-4.93,7.77-9.85,15.53-14.78,23.3  c-3.04,4.79-6.07,9.57-9.11,14.36c-0.75,1.18-1.5,2.37-2.25,3.55c-0.37,0.58-0.22,1.21-0.22,1.89c0,5.76,0,11.51,0,17.27  c0,2.53,0,5.05,0,7.58c0,0.52,0,1.05,0,1.57c0,0.16-1.15,0.07-1.3,0.07c-2.99,0-5.99,0-8.98,0c-0.81,0-1.63,0-2.44,0  c-0.04,0-0.02-0.86-0.02-0.93c0-5.51,0-11.03,0-16.54c0-2.72,0-5.44,0-8.16c0-0.63,0.28-1.96-0.08-2.53c-1.9-3-3.8-5.99-5.7-8.99  c-6.28-9.9-12.56-19.79-18.84-29.69c-0.58-0.91-1.16-1.83-1.74-2.74c4.66,0,9.31,0,13.97,0c0.52,0,1.23,1.72,1.48,2.11  c1.31,2.12,2.62,4.25,3.94,6.37c2.93,4.74,5.85,9.47,8.78,14.21c1.08,1.75,2.16,3.5,3.24,5.25  C412.48,31.22,413.22,32.91,413.67,32.89z" fill="#074C80"></path>
<path style="" d="M139.72,38.44c0,18.23-13.35,34.4-31.29,37.77c-8.94,1.68-18.35,0.12-26.24-4.41  c-7.61-4.36-13.6-11.33-16.77-19.51c-3.29-8.5-3.42-18.12-0.37-26.71c2.94-8.27,8.74-15.4,16.23-19.97  c7.76-4.74,17.1-6.55,26.07-5.13c8.74,1.39,16.85,5.87,22.72,12.49C136.26,19.96,139.72,29.1,139.72,38.44" fill="#074C80"></path>
<path style="" d="M101.97,4.84c-7.1,0-14.1,2.28-19.83,6.48C88.5,19,94.86,26.67,101.22,34.34  c1.06,1.28,2.12,2.56,3.19,3.84c0.43,0.52,1.46,0.25,2.09,0.25c5.75,0,11.49,0,17.24,0c3.94,0,7.88,0,11.82,0  c0-8.82-3.54-17.4-9.75-23.66C119.54,8.45,110.87,4.84,101.97,4.84" fill="#F2F2F3"></path>
<path style="" d="M101.97,72.03c-7.1,0-14.1-2.29-19.83-6.48c6.36-7.67,12.73-15.35,19.09-23.02  c1.06-1.28,2.12-2.56,3.19-3.84c0.43-0.52,1.46-0.25,2.09-0.25c5.75,0,11.49,0,17.24,0c3.94,0,7.88,0,11.82,0  c0,8.82-3.54,17.4-9.75,23.66C119.54,68.42,110.87,72.03,101.97,72.03" fill="#ED1C24"></path>
</symbol></defs><use xmlns:xlink="http://www.w3.org/1999/xlink" xlink:href="#icon-logo"></use></svg>